<svg width="89" height="103" viewBox="0 0 89 103" fill="none" xmlns="http://www.w3.org/2000/svg">
<g filter="url(#filter0_bi_308_660)">
<path d="M9.85762 19.8181L33.6126 5.84091C39.7575 2.22532 47.3625 2.15432 53.5738 5.65458L78.8188 19.8808C85.1087 23.4254 89 30.0848 89 37.3047V65.1209C89 72.2533 85.2017 78.8459 79.0313 82.4233L53.7909 97.0567C47.4698 100.721 39.6532 100.647 33.4026 96.8637L9.643 82.4811C3.65697 78.8575 0 72.369 0 65.3717V37.0556C0 29.9692 3.74996 23.4118 9.85762 19.8181Z" fill="url(#paint0_radial_308_660)" fill-opacity="0.5"/>
</g>
<path d="M45 52.2C47.3196 52.2 49.2 50.3196 49.2 48C49.2 45.6804 47.3196 43.8 45 43.8C42.6804 43.8 40.8 45.6804 40.8 48C40.8 50.3196 42.6804 52.2 45 52.2ZM46.8 48C46.8 48.9941 45.9941 49.8 45 49.8C44.0059 49.8 43.2 48.9941 43.2 48C43.2 47.0059 44.0059 46.2 45 46.2C45.9941 46.2 46.8 47.0059 46.8 48Z" fill="#FF6B35" stroke="#FF6B35" stroke-width="0.4"/>
<path d="M34.4268 39.7297C34.917 38.9362 35.2 38.0009 35.2 37C35.2 34.1281 32.8719 31.8 30 31.8C27.1281 31.8 24.8 34.1281 24.8 37C24.8 39.8719 27.1281 42.2 30 42.2C31.0009 42.2 31.9362 41.917 32.7297 41.4268L35.5663 44.2634C33.8378 46.3687 32.8 49.0634 32.8 52C32.8 54.9366 33.8378 57.6313 35.5663 59.7366L32.7297 62.5733C31.9362 62.0829 31.0009 61.8 30 61.8C27.1281 61.8 24.8 64.1281 24.8 67C24.8 69.8719 27.1281 72.2 30 72.2C32.8719 72.2 35.2 69.8719 35.2 67C35.2 65.9991 34.917 65.0638 34.4268 64.2703L37.2634 61.4336C39.3687 63.1622 42.0634 64.2 45 64.2C47.9366 64.2 50.6313 63.1622 52.7366 61.4336L55.5733 64.2703C55.0829 65.0638 54.8 65.9991 54.8 67C54.8 69.8719 57.1281 72.2 60 72.2C62.8719 72.2 65.2 69.8719 65.2 67C65.2 64.1281 62.8719 61.8 60 61.8C58.9991 61.8 58.0638 62.0829 57.2703 62.5733L54.4336 59.7366C56.1622 57.6313 57.2 54.9366 57.2 52C57.2 49.0634 56.1622 46.3687 54.4336 44.2634L57.2703 41.4268C58.0638 41.917 58.9991 42.2 60 42.2C62.8719 42.2 65.2 39.8719 65.2 37C65.2 34.1281 62.8719 31.8 60 31.8C57.1281 31.8 54.8 34.1281 54.8 37C54.8 38.0009 55.0829 38.9362 55.5733 39.7297L52.7366 42.5663C50.6313 40.8378 47.9366 39.8 45 39.8C42.0634 39.8 39.3687 40.8378 37.2634 42.5663L34.4268 39.7297ZM32.8 37C32.8 38.5464 31.5464 39.8 30 39.8C28.4536 39.8 27.2 38.5464 27.2 37C27.2 35.4536 28.4536 34.2 30 34.2C31.5464 34.2 32.8 35.4536 32.8 37ZM54.8 52C54.8 54.6217 53.7708 57.0027 52.0938 58.7615C51.5067 55.3751 48.5542 52.8 45 52.8C41.4458 52.8 38.4933 55.3751 37.9061 58.7615C36.2292 57.0027 35.2 54.6217 35.2 52C35.2 46.5876 39.5876 42.2 45 42.2C50.4124 42.2 54.8 46.5876 54.8 52ZM49.8 60V60.546C48.3816 61.3445 46.7443 61.8 45 61.8C43.2558 61.8 41.6185 61.3445 40.2 60.546V60C40.2 57.349 42.3491 55.2 45 55.2C47.651 55.2 49.8 57.349 49.8 60ZM32.8 67C32.8 68.5464 31.5464 69.8 30 69.8C28.4536 69.8 27.2 68.5464 27.2 67C27.2 65.4536 28.4536 64.2 30 64.2C31.5464 64.2 32.8 65.4536 32.8 67ZM62.8 37C62.8 38.5464 61.5464 39.8 60 39.8C58.4536 39.8 57.2 38.5464 57.2 37C57.2 35.4536 58.4536 34.2 60 34.2C61.5464 34.2 62.8 35.4536 62.8 37ZM62.8 67C62.8 68.5464 61.5464 69.8 60 69.8C58.4536 69.8 57.2 68.5464 57.2 67C57.2 65.4536 58.4536 64.2 60 64.2C61.5464 64.2 62.8 65.4536 62.8 67Z" fill="#FF6B35" stroke="#FF6B35" stroke-width="0.4"/>
<defs>
<filter id="filter0_bi_308_660" x="-54" y="-50.9219" width="197" height="204.676" filterUnits="userSpaceOnUse" color-interpolation-filters="sRGB">
<feFlood flood-opacity="0" result="BackgroundImageFix"/>
<feGaussianBlur in="BackgroundImageFix" stdDeviation="27"/>
<feComposite in2="SourceAlpha" operator="in" result="effect1_backgroundBlur_308_660"/>
<feBlend mode="normal" in="SourceGraphic" in2="effect1_backgroundBlur_308_660" result="shape"/>
<feColorMatrix in="SourceAlpha" type="matrix" values="0 0 0 0 0 0 0 0 0 0 0 0 0 0 0 0 0 0 127 0" result="hardAlpha"/>
<feOffset/>
<feGaussianBlur stdDeviation="7"/>
<feComposite in2="hardAlpha" operator="arithmetic" k2="-1" k3="1"/>
<feColorMatrix type="matrix" values="0 0 0 0 0.968627 0 0 0 0 0.976471 0 0 0 0 0.984314 0 0 0 0.1 0"/>
<feBlend mode="normal" in2="shape" result="effect2_innerShadow_308_660"/>
</filter>
<radialGradient id="paint0_radial_308_660" cx="0" cy="0" r="1" gradientUnits="userSpaceOnUse" gradientTransform="translate(44.5 51.5) rotate(90) scale(249.5 215.587)">
<stop stop-color="#001B2E"/>
<stop offset="1" stop-color="#005794"/>
</radialGradient>
</defs>
</svg>
