<svg width="14" height="11" viewBox="0 0 14 11" fill="none" xmlns="http://www.w3.org/2000/svg">
<path d="M12.4051 0.000640436C12.0025 0.0123737 11.6203 0.180323 11.3393 0.468931C8.92057 2.89293 7.05585 4.92544 4.83977 7.19457L2.58713 5.28911C2.43283 5.15034 2.25225 5.04396 2.05608 4.97626C1.85991 4.90857 1.65215 4.88095 1.4451 4.89503C1.23806 4.90912 1.03595 4.96464 0.850762 5.05828C0.665571 5.15192 0.501064 5.28179 0.366993 5.44019C0.232921 5.59858 0.132014 5.78228 0.070253 5.9804C0.00849167 6.17852 -0.0128671 6.38703 0.00744305 6.59355C0.0277532 6.80008 0.0893187 7.00042 0.18849 7.18272C0.287662 7.36501 0.422421 7.52553 0.58478 7.65478L3.94356 10.4968C4.24072 10.7483 4.62159 10.8787 5.01051 10.8623C5.39943 10.8458 5.76793 10.6837 6.04279 10.408C8.83073 7.61409 10.8116 5.38677 13.5354 2.657C13.7579 2.43871 13.9094 2.15843 13.9702 1.85274C14.031 1.54704 13.9983 1.23012 13.8762 0.943325C13.7542 0.656528 13.5485 0.413164 13.2861 0.245005C13.0237 0.0768449 12.7166 -0.00831597 12.4051 0.000640436Z" fill="#0052CC"/>
</svg>
