<svg width="40" height="47" viewBox="0 0 40 47" fill="none" xmlns="http://www.w3.org/2000/svg">
<g filter="url(#filter0_bi_39_966)">
<path d="M2.95729 9.77377L16.5903 1.75227C18.4337 0.667596 20.7152 0.646299 22.5786 1.69637L36.9456 9.79259C38.8326 10.856 40 12.8538 40 15.0197V30.9898C40 33.1295 38.8605 35.1073 37.0094 36.1805L22.6437 44.5091C20.7474 45.6086 18.4024 45.5864 16.5273 44.4512L2.8929 36.1978C1.09709 35.1108 0 33.1642 0 31.065V14.945C0 12.8191 1.12499 10.8519 2.95729 9.77377Z" fill="url(#paint0_radial_39_966)" fill-opacity="0.5"/>
</g>
<path d="M20 13C18.0222 13 16.0888 13.5865 14.4443 14.6853C12.7998 15.7841 11.5181 17.3459 10.7612 19.1732C10.0043 21.0004 9.8063 23.0111 10.1922 24.9509C10.578 26.8907 11.5304 28.6725 12.9289 30.0711C14.3275 31.4696 16.1093 32.422 18.0491 32.8078C19.9889 33.1937 21.9996 32.9957 23.8268 32.2388C25.6541 31.4819 27.2159 30.2002 28.3147 28.5557C29.4135 26.9112 30 24.9778 30 23C29.995 20.3494 28.9398 17.8088 27.0655 15.9345C25.1912 14.0602 22.6506 13.005 20 13ZM20 31.5687C18.3053 31.5687 16.6486 31.0662 15.2395 30.1246C13.8304 29.1831 12.7321 27.8448 12.0836 26.2791C11.435 24.7134 11.2653 22.9905 11.5959 21.3283C11.9266 19.6662 12.7427 18.1394 13.941 16.941C15.1394 15.7427 16.6662 14.9266 18.3283 14.5959C19.9905 14.2653 21.7134 14.435 23.2791 15.0836C24.8448 15.7321 26.1831 16.8304 27.1246 18.2395C28.0662 19.6486 28.5687 21.3053 28.5687 23C28.5637 25.271 27.6593 27.4476 26.0534 29.0534C24.4476 30.6593 22.271 31.5637 20 31.5687ZM20 16.7452L18.0177 20.76L13.5854 21.4041L16.7915 24.5315L16.0353 28.947L20 26.8621L23.9647 28.947L23.2085 24.5315L26.4146 21.4041L21.9823 20.76L20 16.7452ZM21.6698 24.0329L22.0635 26.3397L20 25.2447L17.9365 26.3397L18.3302 24.0329L16.6603 22.4036L18.9671 22.0697L20 19.9776L21.0329 22.0697L23.3397 22.4036L21.6698 24.0329Z" fill="#FF6B35"/>
<defs>
<filter id="filter0_bi_39_966" x="-54" y="-53.0764" width="148" height="152.395" filterUnits="userSpaceOnUse" color-interpolation-filters="sRGB">
<feFlood flood-opacity="0" result="BackgroundImageFix"/>
<feGaussianBlur in="BackgroundImageFix" stdDeviation="27"/>
<feComposite in2="SourceAlpha" operator="in" result="effect1_backgroundBlur_39_966"/>
<feBlend mode="normal" in="SourceGraphic" in2="effect1_backgroundBlur_39_966" result="shape"/>
<feColorMatrix in="SourceAlpha" type="matrix" values="0 0 0 0 0 0 0 0 0 0 0 0 0 0 0 0 0 0 127 0" result="hardAlpha"/>
<feOffset/>
<feGaussianBlur stdDeviation="7"/>
<feComposite in2="hardAlpha" operator="arithmetic" k2="-1" k3="1"/>
<feColorMatrix type="matrix" values="0 0 0 0 0.968627 0 0 0 0 0.976471 0 0 0 0 0.984314 0 0 0 0.1 0"/>
<feBlend mode="normal" in2="shape" result="effect2_innerShadow_39_966"/>
</filter>
<radialGradient id="paint0_radial_39_966" cx="0" cy="0" r="1" gradientUnits="userSpaceOnUse" gradientTransform="translate(20 23.1461) rotate(90) scale(112.135 96.8932)">
<stop stop-color="#001B2E"/>
<stop offset="1" stop-color="#005794"/>
</radialGradient>
</defs>
</svg>
