<svg width="89" height="103" viewBox="0 0 89 103" fill="none" xmlns="http://www.w3.org/2000/svg">
<g filter="url(#filter0_bi_308_653)">
<path d="M9.85762 19.8181L33.6126 5.84091C39.7575 2.22532 47.3625 2.15432 53.5738 5.65458L78.8188 19.8808C85.1087 23.4254 89 30.0848 89 37.3047V65.1209C89 72.2533 85.2017 78.8459 79.0313 82.4233L53.7909 97.0567C47.4698 100.721 39.6532 100.647 33.4026 96.8637L9.643 82.4811C3.65697 78.8575 0 72.369 0 65.3717V37.0556C0 29.9692 3.74996 23.4118 9.85762 19.8181Z" fill="url(#paint0_radial_308_653)" fill-opacity="0.5"/>
</g>
<path d="M38.3226 59.4583V59.4471L38.203 59.3945C37.9138 59.2676 37.5775 59.3034 37.3189 59.4851L37.3188 59.4852C36.0247 60.3958 34.5019 60.8751 32.9142 60.8751C31.3268 60.8751 29.8309 60.4015 28.5415 59.5119C28.2798 59.3284 27.9496 59.3025 27.6598 59.4266L27.6586 59.4272C23.3017 61.3302 20.8 65.2966 20.8 70.2895C20.8 70.5303 20.8988 70.7594 21.0634 70.9308L21.0634 70.9309L21.0663 70.9337C21.2346 71.1021 21.4657 71.2 21.7105 71.2H44.1179C44.6164 71.2 45.0229 70.7935 45.0229 70.295C45.0229 65.3173 42.5847 61.3662 38.3226 59.4583ZM63.2112 42.6956C63.2112 40.5652 61.7908 38.3907 59.074 38.2348V33.0003C59.074 31.6899 57.8723 30.8 56.3436 30.8C54.8149 30.8 53.6132 31.6899 53.6132 33.0003V33.7782L43.0051 39.0634H39.6036C37.5915 39.0634 35.9496 40.6994 35.9496 42.7174C35.9496 44.7353 37.5858 46.3715 39.6036 46.3715H39.819V52.0302C39.819 53.6889 40.9159 54.6021 42.0357 54.6021C43.1554 54.6021 44.2523 53.6889 44.2523 52.0302V46.9918L53.6187 51.6567V52.4346C53.6187 53.745 54.8204 54.6349 56.3491 54.6349C57.8778 54.6349 59.0795 53.745 59.0795 52.4346V47.1997C60.2933 47.1278 61.3368 46.636 62.096 45.7676C62.8187 44.9416 63.2112 43.85 63.2112 42.6956ZM60.5771 44.4484L60.5767 44.4488C60.2092 44.8656 59.7017 45.1216 59.0795 45.1866V40.2641C59.7838 40.3346 60.2917 40.6341 60.6325 41.0433C61.0094 41.4958 61.1935 42.097 61.1935 42.7065C61.1935 43.3745 60.9669 44.0086 60.5771 44.4484ZM68.0823 48.8993L68.0237 48.8407H68.0182L65.2895 46.112C64.8944 45.7169 64.2595 45.7169 63.8644 46.112C63.4694 46.5071 63.4694 47.142 63.8644 47.5371L66.6517 50.3244C66.8504 50.5231 67.1102 50.618 67.367 50.618C67.6238 50.618 67.8836 50.5231 68.0823 50.3244C68.4773 49.9293 68.4773 49.2944 68.0823 48.8993ZM63.8699 37.9087C63.5757 38.203 63.5006 38.6302 63.6446 38.9924H63.523L63.8644 39.3338C64.0631 39.5325 64.3229 39.6274 64.5797 39.6274C64.8365 39.6274 65.0963 39.5325 65.295 39.3338L68.0823 36.5465C68.4773 36.1514 68.4773 35.5165 68.0823 35.1215C67.6872 34.7264 67.0523 34.7264 66.6572 35.1215L63.8699 37.9087ZM37.9275 61.2598C41.044 62.7898 42.9239 65.6887 43.1837 69.3736H22.6563C22.9272 65.7213 24.8174 62.8324 27.9562 61.2869C29.4472 62.2034 31.1544 62.6852 32.9197 62.6852C34.6855 62.6852 36.4246 62.1927 37.9275 61.2598ZM32.9197 60.1329C36.2489 60.1329 38.962 57.4258 38.962 54.0961C38.962 50.7665 36.2545 48.0592 32.9197 48.0592C29.5848 48.0592 26.8773 50.7665 26.8773 54.0961C26.8773 57.4256 29.5848 60.1329 32.9197 60.1329ZM32.9197 50.0769C35.1377 50.0769 36.9443 51.8787 36.9443 54.0961C36.9443 56.3134 35.1377 58.1152 32.9197 58.1152C30.7016 58.1152 28.895 56.3134 28.895 54.0961C28.895 51.8787 30.7016 50.0769 32.9197 50.0769ZM37.9673 42.7174C37.9673 41.8168 38.703 41.0811 39.6036 41.0811H42.2346V44.3538H39.6036C38.703 44.3538 37.9673 43.6181 37.9673 42.7174ZM42.0357 52.5844C42.0286 52.5844 41.9856 52.58 41.9349 52.4974C41.8842 52.4146 41.8367 52.2657 41.8367 52.0302V46.3715H42.2346V52.0302C42.2346 52.2657 42.1872 52.4146 42.1364 52.4974C42.0857 52.58 42.0427 52.5844 42.0357 52.5844ZM44.2523 40.7044L53.6187 36.0395V49.4118L44.2523 44.7469V40.7044ZM57.0618 33.0197V52.4261C57.0593 52.4291 57.0554 52.4335 57.0493 52.4392C57.0242 52.4628 56.9779 52.493 56.9068 52.5226C56.7657 52.5814 56.5642 52.6227 56.3491 52.6227C56.134 52.6227 55.9325 52.5814 55.7914 52.5226C55.7203 52.493 55.674 52.4628 55.6489 52.4392C55.6428 52.4335 55.6389 52.4291 55.6364 52.4261V33.0197C55.6389 33.0167 55.6428 33.0123 55.6489 33.0066C55.674 32.9831 55.7203 32.9529 55.7914 32.9232C55.9325 32.8644 56.134 32.8232 56.3491 32.8232C56.5642 32.8232 56.7657 32.8644 56.9068 32.9232C56.9779 32.9529 57.0242 32.9831 57.0493 33.0066C57.0554 33.0123 57.0593 33.0167 57.0618 33.0197ZM70.2198 43.7318C70.7784 43.7318 71.2287 43.2815 71.2287 42.7229C71.2287 42.1643 70.7784 41.7141 70.2198 41.7141H66.2739C65.7153 41.7141 65.2651 42.1643 65.2651 42.7229C65.2651 43.2815 65.7153 43.7318 66.2739 43.7318H70.2198Z" fill="#FF6B35" stroke="#FF6B35" stroke-width="0.4"/>
<defs>
<filter id="filter0_bi_308_653" x="-54" y="-50.9219" width="197" height="204.676" filterUnits="userSpaceOnUse" color-interpolation-filters="sRGB">
<feFlood flood-opacity="0" result="BackgroundImageFix"/>
<feGaussianBlur in="BackgroundImageFix" stdDeviation="27"/>
<feComposite in2="SourceAlpha" operator="in" result="effect1_backgroundBlur_308_653"/>
<feBlend mode="normal" in="SourceGraphic" in2="effect1_backgroundBlur_308_653" result="shape"/>
<feColorMatrix in="SourceAlpha" type="matrix" values="0 0 0 0 0 0 0 0 0 0 0 0 0 0 0 0 0 0 127 0" result="hardAlpha"/>
<feOffset/>
<feGaussianBlur stdDeviation="7"/>
<feComposite in2="hardAlpha" operator="arithmetic" k2="-1" k3="1"/>
<feColorMatrix type="matrix" values="0 0 0 0 0.968627 0 0 0 0 0.976471 0 0 0 0 0.984314 0 0 0 0.1 0"/>
<feBlend mode="normal" in2="shape" result="effect2_innerShadow_308_653"/>
</filter>
<radialGradient id="paint0_radial_308_653" cx="0" cy="0" r="1" gradientUnits="userSpaceOnUse" gradientTransform="translate(44.5 51.5) rotate(90) scale(249.5 215.587)">
<stop stop-color="#001B2E"/>
<stop offset="1" stop-color="#005794"/>
</radialGradient>
</defs>
</svg>
