<svg width="16" height="12" viewBox="0 0 16 12" fill="none" xmlns="http://www.w3.org/2000/svg">
<ellipse cx="15.1429" cy="0.857143" rx="0.857143" ry="0.857143" transform="rotate(90 15.1429 0.857143)" fill="#FF6B35"/>
<ellipse cx="1.42856" cy="0.857143" rx="0.857143" ry="0.857143" transform="rotate(90 1.42856 0.857143)" fill="#FF6B35"/>
<ellipse cx="11.7143" cy="4.28585" rx="0.857143" ry="0.857143" transform="rotate(90 11.7143 4.28585)" fill="#FF6B35"/>
<ellipse cx="8.28571" cy="7.71456" rx="0.857143" ry="0.857143" transform="rotate(90 8.28571 7.71456)" fill="#FF6B35"/>
<ellipse cx="4.85715" cy="4.28585" rx="0.857143" ry="0.857143" transform="rotate(90 4.85715 4.28585)" fill="#FF6B35"/>
<ellipse cx="15.1429" cy="4.28585" rx="0.857143" ry="0.857143" transform="rotate(90 15.1429 4.28585)" fill="#FF6B35"/>
<ellipse cx="1.42856" cy="4.28585" rx="0.857143" ry="0.857143" transform="rotate(90 1.42856 4.28585)" fill="#FF6B35"/>
<ellipse cx="11.7143" cy="7.71456" rx="0.857143" ry="0.857143" transform="rotate(90 11.7143 7.71456)" fill="#FF6B35"/>
<ellipse cx="8.28571" cy="11.1433" rx="0.857143" ry="0.857143" transform="rotate(90 8.28571 11.1433)" fill="#FF6B35"/>
<ellipse cx="4.85715" cy="7.71456" rx="0.857143" ry="0.857143" transform="rotate(90 4.85715 7.71456)" fill="#FF6B35"/>
</svg>
