<svg width="40" height="47" viewBox="0 0 40 47" fill="none" xmlns="http://www.w3.org/2000/svg">
<g filter="url(#filter0_bi_39_972)">
<path d="M2.95729 9.77377L16.5903 1.75227C18.4337 0.667596 20.7152 0.646299 22.5786 1.69637L36.9456 9.79259C38.8326 10.856 40 12.8538 40 15.0197V30.9898C40 33.1295 38.8605 35.1073 37.0094 36.1805L22.6437 44.5091C20.7474 45.6086 18.4024 45.5864 16.5273 44.4512L2.8929 36.1978C1.09709 35.1108 0 33.1642 0 31.065V14.945C0 12.8191 1.12499 10.8519 2.95729 9.77377Z" fill="url(#paint0_radial_39_972)" fill-opacity="0.5"/>
</g>
<path fill-rule="evenodd" clip-rule="evenodd" d="M21.3809 14.2151H18.6184V15.7995H18.6166C18.6166 16.0679 18.4377 16.313 18.1657 16.3846C17.5475 16.5474 16.9624 16.7917 16.422 17.1039C15.87 17.4224 15.3654 17.8125 14.9199 18.2607L14.919 18.2598C14.7311 18.4495 14.4323 18.4969 14.1899 18.3573L12.8121 17.562L11.429 19.9588L12.7781 20.7371C13.0268 20.8641 13.1619 21.1513 13.0868 21.4323C13.0036 21.7409 12.94 22.0513 12.8989 22.3609C12.8586 22.6615 12.8381 22.9782 12.8381 23.3092C12.8381 23.6411 12.8586 23.9569 12.8989 24.2584C12.94 24.568 13.0027 24.8775 13.0868 25.1862H13.0859C13.1548 25.4438 13.0465 25.7257 12.8049 25.8661L11.429 26.6606L12.8121 29.0574L14.1577 28.2808C14.3929 28.1261 14.7123 28.152 14.9181 28.3596C15.3636 28.8069 15.8682 29.197 16.4202 29.5164C16.949 29.8223 17.5215 30.0621 18.1245 30.2249C18.4046 30.2786 18.6157 30.5246 18.6157 30.8199V32.4043H21.3782V30.8199H21.38C21.38 30.5515 21.559 30.3064 21.8309 30.2348C22.4491 30.072 23.0342 29.8277 23.5746 29.5155C24.1266 29.197 24.6312 28.8069 25.0758 28.3596L25.0767 28.3605C25.2646 28.1708 25.5634 28.1234 25.8059 28.263L27.1818 29.0574L28.5659 26.6597L27.2337 25.8903C26.9752 25.7677 26.832 25.4743 26.909 25.1871C26.9922 24.8785 27.0557 24.568 27.0969 24.2585C27.1371 23.9579 27.1577 23.6412 27.1577 23.3102C27.1577 22.9782 27.1371 22.6615 27.0969 22.3609C27.0557 22.0514 26.9931 21.7418 26.909 21.4332L26.9108 21.4323C26.8419 21.1746 26.951 20.8928 27.1935 20.7533L28.5659 19.9606L27.1818 17.5629L25.8372 18.3394C25.6019 18.4942 25.2825 18.4683 25.0767 18.2607C24.6312 17.8134 24.1266 17.4233 23.5746 17.1039C23.0459 16.798 22.4733 16.5582 21.8703 16.3954C21.5903 16.3417 21.3792 16.0957 21.3792 15.8004V14.216L21.3809 14.2151ZM18.0117 13.0028H21.9874C22.322 13.0028 22.594 13.2739 22.594 13.6094V15.3486C23.1514 15.5302 23.6837 15.7691 24.1838 16.0572C24.691 16.3497 25.1643 16.6951 25.5982 17.0851L27.1066 16.2137C27.3947 16.0482 27.7633 16.1466 27.9297 16.4347L27.9306 16.4338L29.9185 19.8764C30.0858 20.1653 29.9874 20.5357 29.6984 20.703L29.6644 20.7209L28.1909 21.5717C28.2339 21.7775 28.2696 21.9877 28.2983 22.2033C28.3475 22.5746 28.3725 22.9441 28.3725 23.3082C28.3725 23.6733 28.3475 24.0418 28.2983 24.4131C28.2696 24.6287 28.2339 24.839 28.1909 25.0447L29.6957 25.9134C29.9847 26.0799 30.084 26.4484 29.9185 26.7374L29.9176 26.7392L29.9185 26.7401L27.9306 30.1827C27.7633 30.4716 27.3929 30.57 27.1039 30.4028L27.0726 30.3831L25.5982 29.5314C25.1652 29.9214 24.691 30.2667 24.1847 30.5593C23.6845 30.8483 23.1522 31.0863 22.5949 31.2688V33.008C22.5949 33.3426 22.3238 33.6145 21.9883 33.6145H18.0126C17.678 33.6145 17.406 33.3435 17.406 33.008V31.2688C16.8486 31.0872 16.3163 30.8483 15.8162 30.5602C15.309 30.2677 14.8357 29.9223 14.4018 29.5322L12.8934 30.4036C12.6044 30.57 12.2358 30.4698 12.0694 30.1809L10.0815 26.7383C9.91601 26.4502 10.0144 26.0816 10.3025 25.9152L10.3016 25.9143L11.8082 25.0438C11.7652 24.839 11.7295 24.6287 11.7008 24.4131C11.6516 24.0418 11.6266 23.6723 11.6266 23.3082C11.6266 22.9432 11.6516 22.5746 11.7008 22.2033C11.7295 21.9886 11.7652 21.7784 11.8082 21.5726L10.3016 20.7021C10.0126 20.5348 9.91422 20.1644 10.0815 19.8755L10.1012 19.8441L12.0694 16.4346C12.2358 16.1456 12.6044 16.0463 12.8934 16.2118L14.4018 17.0832C14.8348 16.6931 15.309 16.3478 15.8153 16.0552C16.3154 15.7663 16.8469 15.5283 17.4051 15.3458V13.6066C17.4051 13.272 17.6762 13 18.0117 13V13.0028ZM22.0628 21.2461C22.5906 21.7739 22.9172 22.5031 22.9172 23.3091C22.9172 24.1143 22.5906 24.8443 22.0628 25.3722C21.5349 25.9 20.8058 26.2266 19.9997 26.2266C19.1936 26.2266 18.4645 25.9 17.9367 25.3722C17.4088 24.8443 17.0823 24.1152 17.0823 23.3091C17.0823 22.5031 17.4088 21.7739 17.9367 21.2461C18.4645 20.7182 19.1936 20.3917 19.9997 20.3917C20.8049 20.3917 21.5349 20.7182 22.0628 21.2461ZM19.9997 19.1795C21.1404 19.1795 22.1728 19.642 22.9198 20.389C23.6669 21.136 24.1294 22.1685 24.1294 23.3091C24.1294 24.4498 23.6669 25.4822 22.9198 26.2293C22.1728 26.9763 21.1404 27.4388 19.9997 27.4388C18.859 27.4388 17.8266 26.9763 17.0796 26.2293C16.3326 25.4822 15.87 24.4498 15.87 23.3091C15.87 22.1685 16.3326 21.136 17.0796 20.389C17.8266 19.642 18.859 19.1795 19.9997 19.1795Z" fill="#FF6B35"/>
<defs>
<filter id="filter0_bi_39_972" x="-54" y="-53.0764" width="148" height="152.395" filterUnits="userSpaceOnUse" color-interpolation-filters="sRGB">
<feFlood flood-opacity="0" result="BackgroundImageFix"/>
<feGaussianBlur in="BackgroundImageFix" stdDeviation="27"/>
<feComposite in2="SourceAlpha" operator="in" result="effect1_backgroundBlur_39_972"/>
<feBlend mode="normal" in="SourceGraphic" in2="effect1_backgroundBlur_39_972" result="shape"/>
<feColorMatrix in="SourceAlpha" type="matrix" values="0 0 0 0 0 0 0 0 0 0 0 0 0 0 0 0 0 0 127 0" result="hardAlpha"/>
<feOffset/>
<feGaussianBlur stdDeviation="7"/>
<feComposite in2="hardAlpha" operator="arithmetic" k2="-1" k3="1"/>
<feColorMatrix type="matrix" values="0 0 0 0 0.968627 0 0 0 0 0.976471 0 0 0 0 0.984314 0 0 0 0.1 0"/>
<feBlend mode="normal" in2="shape" result="effect2_innerShadow_39_972"/>
</filter>
<radialGradient id="paint0_radial_39_972" cx="0" cy="0" r="1" gradientUnits="userSpaceOnUse" gradientTransform="translate(20 23.1461) rotate(90) scale(112.135 96.8932)">
<stop stop-color="#001B2E"/>
<stop offset="1" stop-color="#005794"/>
</radialGradient>
</defs>
</svg>
