<svg width="40" height="47" viewBox="0 0 40 47" fill="none" xmlns="http://www.w3.org/2000/svg">
<g filter="url(#filter0_bi_39_946)">
<path d="M2.95729 9.77377L16.5903 1.75227C18.4337 0.667596 20.7152 0.646299 22.5786 1.69637L36.9456 9.79259C38.8326 10.856 40 12.8538 40 15.0197V30.9898C40 33.1295 38.8605 35.1073 37.0094 36.1805L22.6437 44.5091C20.7474 45.6086 18.4024 45.5864 16.5273 44.4512L2.8929 36.1978C1.09709 35.1108 0 33.1642 0 31.065V14.945C0 12.8191 1.12499 10.8519 2.95729 9.77377Z" fill="url(#paint0_radial_39_946)" fill-opacity="0.5"/>
</g>
<path fill-rule="evenodd" clip-rule="evenodd" d="M21.4816 13.2422C22.2714 12.7716 23.2859 13.0084 23.79 13.7647L23.8368 13.8399C23.9679 14.0595 24.0482 14.3045 24.0716 14.5596L24.4751 18.8899L27.7534 21.7575C28.4456 22.3633 28.5351 23.4011 27.9719 24.1147L27.915 24.1828C27.7453 24.378 27.5328 24.5315 27.2939 24.6331L24.2679 25.919L29.6705 31.0359C30.0934 31.4364 30.1117 32.1042 29.7112 32.5281C29.7051 32.5352 29.698 32.5413 29.6909 32.5484C29.2792 32.9601 28.6114 32.9601 28.1987 32.5484C28.1926 32.5413 28.1854 32.5352 28.1793 32.5281L23.0054 27.0656L21.6332 30.2949C21.2815 31.1213 20.3575 31.531 19.5189 31.2565L19.4609 31.2362L19.3786 31.2036C19.1397 31.103 18.9273 30.9485 18.7575 30.7533L15.8899 27.4761L11.5586 27.0716C10.6448 26.9862 9.96576 26.2004 10.0013 25.2948L10.0074 25.2002C10.0308 24.9461 10.1111 24.7011 10.2412 24.4816L12.4541 20.7633L11.4783 16.5408C11.2648 15.6158 11.8412 14.6928 12.7662 14.4793C13.0213 14.4204 13.2856 14.4204 13.5407 14.4793L17.7633 15.4541L21.4816 13.2422ZM22.7197 14.5057C22.6007 14.3065 22.3446 14.2414 22.1464 14.3604L18.2288 16.6922C18.0682 16.7867 17.8781 16.8162 17.6972 16.7745L13.2479 15.7468C13.1859 15.7326 13.1209 15.7326 13.0589 15.7468L13.0091 15.7621C12.8139 15.8332 12.698 16.0406 12.7468 16.248L13.7745 20.6972C13.8162 20.8781 13.7867 21.0692 13.6911 21.2288L11.3593 25.1475C11.3278 25.2003 11.3085 25.2603 11.3024 25.3213C11.2811 25.551 11.4498 25.7553 11.6795 25.7767L16.2414 26.2026C16.4254 26.2198 16.5952 26.3073 16.7171 26.4455L19.7362 29.8976C19.7779 29.9443 19.8297 29.9819 19.8876 30.0063C20.1001 30.0968 20.345 29.9982 20.4355 29.7857L22.2154 25.5978C22.2886 25.426 22.4248 25.2888 22.5976 25.2156L26.7855 23.4357C26.8435 23.4113 26.8943 23.3737 26.936 23.326C27.0885 23.1532 27.0702 22.8889 26.8963 22.7364L23.4453 19.7173C23.3061 19.5964 23.2186 19.4256 23.2024 19.2416L22.7765 14.6808C22.7704 14.6188 22.7512 14.5586 22.7197 14.5057Z" fill="#FF6B35"/>
<defs>
<filter id="filter0_bi_39_946" x="-54" y="-53.0764" width="148" height="152.395" filterUnits="userSpaceOnUse" color-interpolation-filters="sRGB">
<feFlood flood-opacity="0" result="BackgroundImageFix"/>
<feGaussianBlur in="BackgroundImageFix" stdDeviation="27"/>
<feComposite in2="SourceAlpha" operator="in" result="effect1_backgroundBlur_39_946"/>
<feBlend mode="normal" in="SourceGraphic" in2="effect1_backgroundBlur_39_946" result="shape"/>
<feColorMatrix in="SourceAlpha" type="matrix" values="0 0 0 0 0 0 0 0 0 0 0 0 0 0 0 0 0 0 127 0" result="hardAlpha"/>
<feOffset/>
<feGaussianBlur stdDeviation="7"/>
<feComposite in2="hardAlpha" operator="arithmetic" k2="-1" k3="1"/>
<feColorMatrix type="matrix" values="0 0 0 0 0.968627 0 0 0 0 0.976471 0 0 0 0 0.984314 0 0 0 0.1 0"/>
<feBlend mode="normal" in2="shape" result="effect2_innerShadow_39_946"/>
</filter>
<radialGradient id="paint0_radial_39_946" cx="0" cy="0" r="1" gradientUnits="userSpaceOnUse" gradientTransform="translate(20 23.1461) rotate(90) scale(112.135 96.8932)">
<stop stop-color="#001B2E"/>
<stop offset="1" stop-color="#005794"/>
</radialGradient>
</defs>
</svg>
