<svg width="40" height="47" viewBox="0 0 40 47" fill="none" xmlns="http://www.w3.org/2000/svg">
<g filter="url(#filter0_bi_39_954)">
<path d="M2.95729 9.77377L16.5903 1.75227C18.4337 0.667596 20.7152 0.646299 22.5786 1.69637L36.9456 9.79259C38.8326 10.856 40 12.8538 40 15.0197V30.9898C40 33.1295 38.8605 35.1073 37.0094 36.1805L22.6437 44.5091C20.7474 45.6086 18.4024 45.5864 16.5273 44.4512L2.8929 36.1978C1.09709 35.1108 0 33.1642 0 31.065V14.945C0 12.8191 1.12499 10.8519 2.95729 9.77377Z" fill="url(#paint0_radial_39_954)" fill-opacity="0.5"/>
</g>
<path fill-rule="evenodd" clip-rule="evenodd" d="M17.143 13C13.201 13 10 16.201 10 20.143C10 24.085 13.201 27.286 17.143 27.286C18.9431 27.286 20.5868 26.6173 21.8439 25.5172L23.9172 27.5905C23.6636 28.1209 23.7556 28.7753 24.1949 29.2155L27.5618 32.5825C28.1198 33.1405 29.0243 33.1405 29.5815 32.5825C30.1395 32.0244 30.1395 31.1199 29.5815 30.5628L26.2145 27.1959C25.7752 26.7566 25.1199 26.6646 24.5895 26.9182L22.5162 24.8449C23.6171 23.5886 24.285 21.9441 24.285 20.144C24.285 16.202 21.084 13.001 17.142 13.001L17.143 13ZM17.143 13.9527C20.5591 13.9527 23.3333 16.7269 23.3333 20.143C23.3333 21.7993 22.6797 23.3029 21.619 24.4137C21.5761 24.4361 21.536 24.4646 21.5002 24.5004C21.4645 24.537 21.436 24.5762 21.4136 24.6191C20.302 25.6798 18.7985 26.3334 17.1429 26.3334C13.7268 26.3334 10.9526 23.5592 10.9526 20.1431C10.9526 16.727 13.7269 13.9527 17.143 13.9527ZM17.143 14.9054C14.252 14.9054 11.9045 17.2529 11.9045 20.1439C11.9045 23.035 14.252 25.3824 17.143 25.3824C20.0341 25.3824 22.3815 23.035 22.3815 20.1439C22.3815 17.2529 20.0341 14.9054 17.143 14.9054ZM17.143 15.8581C19.5083 15.8581 21.4288 17.7787 21.4288 20.1439C21.4288 22.5092 19.5083 24.4297 17.143 24.4297C14.7778 24.4297 12.8572 22.5092 12.8572 20.1439C12.8572 17.7787 14.7778 15.8581 17.143 15.8581ZM18.5716 18.7153C18.3091 18.7153 18.0957 18.9287 18.0957 19.1912C18.0957 19.4537 18.3091 19.6671 18.5716 19.6671H18.7297L17.6636 20.4671L16.5269 19.3305C16.3591 19.1626 16.0939 19.143 15.9046 19.2859L14.0001 20.7145C13.7893 20.8725 13.7465 21.1707 13.9045 21.3814C14.0626 21.5922 14.3608 21.635 14.5715 21.477L16.1457 20.2957L17.2823 21.4323C17.4502 21.6002 17.7153 21.6198 17.9046 21.477L19.5234 20.2618V20.6189C19.5234 20.8814 19.7368 21.0948 19.9993 21.0948C20.2618 21.0948 20.4752 20.8814 20.4752 20.6189V19.1903C20.4752 18.9278 20.2618 18.7144 19.9993 18.7144H18.5707L18.5716 18.7153ZM25.2049 27.7299C25.3272 27.7299 25.4487 27.7764 25.5415 27.8692L28.9085 31.2362C29.0942 31.4219 29.0942 31.7237 28.9085 31.9094C28.7227 32.0951 28.421 32.0951 28.2352 31.9094L24.8683 28.5424C24.6817 28.3558 24.6817 28.0549 24.8683 27.8692C24.9612 27.7764 25.0835 27.7299 25.2049 27.7299Z" fill="#FF6B35"/>
<defs>
<filter id="filter0_bi_39_954" x="-54" y="-53.0764" width="148" height="152.395" filterUnits="userSpaceOnUse" color-interpolation-filters="sRGB">
<feFlood flood-opacity="0" result="BackgroundImageFix"/>
<feGaussianBlur in="BackgroundImageFix" stdDeviation="27"/>
<feComposite in2="SourceAlpha" operator="in" result="effect1_backgroundBlur_39_954"/>
<feBlend mode="normal" in="SourceGraphic" in2="effect1_backgroundBlur_39_954" result="shape"/>
<feColorMatrix in="SourceAlpha" type="matrix" values="0 0 0 0 0 0 0 0 0 0 0 0 0 0 0 0 0 0 127 0" result="hardAlpha"/>
<feOffset/>
<feGaussianBlur stdDeviation="7"/>
<feComposite in2="hardAlpha" operator="arithmetic" k2="-1" k3="1"/>
<feColorMatrix type="matrix" values="0 0 0 0 0.968627 0 0 0 0 0.976471 0 0 0 0 0.984314 0 0 0 0.1 0"/>
<feBlend mode="normal" in2="shape" result="effect2_innerShadow_39_954"/>
</filter>
<radialGradient id="paint0_radial_39_954" cx="0" cy="0" r="1" gradientUnits="userSpaceOnUse" gradientTransform="translate(20 23.1461) rotate(90) scale(112.135 96.8932)">
<stop stop-color="#001B2E"/>
<stop offset="1" stop-color="#005794"/>
</radialGradient>
</defs>
</svg>
