<svg width="40" height="47" viewBox="0 0 40 47" fill="none" xmlns="http://www.w3.org/2000/svg">
<g filter="url(#filter0_bi_39_960)">
<path d="M2.95729 9.77377L16.5903 1.75227C18.4337 0.667596 20.7152 0.646299 22.5786 1.69637L36.9456 9.79259C38.8326 10.856 40 12.8538 40 15.0197V30.9898C40 33.1295 38.8605 35.1073 37.0094 36.1805L22.6437 44.5091C20.7474 45.6086 18.4024 45.5864 16.5273 44.4512L2.8929 36.1978C1.09709 35.1108 0 33.1642 0 31.065V14.945C0 12.8191 1.12499 10.8519 2.95729 9.77377Z" fill="url(#paint0_radial_39_960)" fill-opacity="0.5"/>
</g>
<path d="M29.5642 16.9849L20.2785 13.0562C20.1 12.9813 19.9009 12.9813 19.7223 13.0562L10.4366 16.9849C10.1714 17.0965 10 17.3555 10 17.643V28.3572C10 28.6447 10.1714 28.9036 10.4357 29.0152L19.7214 32.9439C19.8107 32.9814 19.9053 33.0001 20 33.0001C20.0946 33.0001 20.1892 32.9814 20.2785 32.9439L23.7071 31.493C23.7089 31.4921 23.7098 31.4912 23.7116 31.4903C24.3696 31.9876 25.1848 32.2859 26.0713 32.2859C28.2374 32.2859 30 30.5234 30 28.3572V17.6429C30 17.3555 29.8285 17.0965 29.5642 16.9849ZM19.9999 14.4903L27.4525 17.643L25.0328 18.6662L17.5803 15.5135L19.9999 14.4903ZM19.2856 31.2082L11.4285 27.8841V18.7207L19.2856 22.0448V31.2082ZM19.9999 20.7956L12.5474 17.643L15.7464 16.2894L23.1983 19.4421L19.9999 20.7956ZM26.0712 30.8573C24.6927 30.8573 23.5711 29.7359 23.5711 28.3572C23.5711 26.9785 24.6925 25.8571 26.0712 25.8571C27.4499 25.8571 28.5713 26.9785 28.5713 28.3572C28.5713 29.7359 27.4499 30.8573 26.0712 30.8573ZM28.5713 25.3296C27.8909 24.7671 27.0195 24.4287 26.0712 24.4287C23.9051 24.4287 22.1425 26.1912 22.1425 28.3574C22.1425 29.0922 22.3488 29.7779 22.7015 30.3672L20.714 31.2082V22.0449L28.5711 18.7208L28.5713 25.3296Z" fill="#FF6B35"/>
<path d="M26.882 27.1376L25.7695 28.6858L25.0159 28.0894C24.7061 27.8447 24.257 27.8974 24.0123 28.2054C23.7677 28.5144 23.8195 28.9643 24.1284 29.209L25.4686 30.2706C25.5953 30.3715 25.7525 30.425 25.9123 30.425C25.9453 30.425 25.9784 30.4233 26.0114 30.4179C26.2052 30.3911 26.3784 30.2858 26.4927 30.1268L28.0418 27.9706C28.2721 27.6501 28.1989 27.2045 27.8784 26.9733C27.5587 26.7429 27.1114 26.817 26.882 27.1376Z" fill="#FF6B35"/>
<defs>
<filter id="filter0_bi_39_960" x="-54" y="-53.0764" width="148" height="152.395" filterUnits="userSpaceOnUse" color-interpolation-filters="sRGB">
<feFlood flood-opacity="0" result="BackgroundImageFix"/>
<feGaussianBlur in="BackgroundImageFix" stdDeviation="27"/>
<feComposite in2="SourceAlpha" operator="in" result="effect1_backgroundBlur_39_960"/>
<feBlend mode="normal" in="SourceGraphic" in2="effect1_backgroundBlur_39_960" result="shape"/>
<feColorMatrix in="SourceAlpha" type="matrix" values="0 0 0 0 0 0 0 0 0 0 0 0 0 0 0 0 0 0 127 0" result="hardAlpha"/>
<feOffset/>
<feGaussianBlur stdDeviation="7"/>
<feComposite in2="hardAlpha" operator="arithmetic" k2="-1" k3="1"/>
<feColorMatrix type="matrix" values="0 0 0 0 0.968627 0 0 0 0 0.976471 0 0 0 0 0.984314 0 0 0 0.1 0"/>
<feBlend mode="normal" in2="shape" result="effect2_innerShadow_39_960"/>
</filter>
<radialGradient id="paint0_radial_39_960" cx="0" cy="0" r="1" gradientUnits="userSpaceOnUse" gradientTransform="translate(20 23.1461) rotate(90) scale(112.135 96.8932)">
<stop stop-color="#001B2E"/>
<stop offset="1" stop-color="#005794"/>
</radialGradient>
</defs>
</svg>
