<svg width="40" height="47" viewBox="0 0 40 47" fill="none" xmlns="http://www.w3.org/2000/svg">
<g filter="url(#filter0_bi_39_948)">
<path d="M2.95729 9.77377L16.5903 1.75227C18.4337 0.667596 20.7152 0.646299 22.5786 1.69637L36.9456 9.79259C38.8326 10.856 40 12.8538 40 15.0197V30.9898C40 33.1295 38.8605 35.1073 37.0094 36.1805L22.6437 44.5091C20.7474 45.6086 18.4024 45.5864 16.5273 44.4512L2.8929 36.1978C1.09709 35.1108 0 33.1642 0 31.065V14.945C0 12.8191 1.12499 10.8519 2.95729 9.77377Z" fill="url(#paint0_radial_39_948)" fill-opacity="0.5"/>
</g>
<path d="M28.2048 20.1289H26.1538C25.1644 20.1337 24.3644 20.9346 24.3586 21.9231V31.1539C24.3644 32.1433 25.1644 32.9433 26.1538 32.9491H28.2048C29.1942 32.9433 29.9942 32.1433 30 31.1539V21.9231C29.9942 20.9346 29.1942 20.1337 28.2048 20.1289ZM28.4615 31.1538C28.4615 31.2221 28.4346 31.2875 28.3865 31.3356C28.3384 31.3837 28.2731 31.4106 28.2048 31.4106H26.1538C26.0125 31.4106 25.8971 31.2962 25.8971 31.1538V21.9231C25.8971 21.7817 26.0125 21.6673 26.1538 21.6673H28.2048C28.2731 21.6673 28.3384 21.6942 28.3865 21.7423C28.4346 21.7904 28.4615 21.8558 28.4615 21.9231V31.1538ZM21.0259 24.2308H18.974C17.9856 24.2365 17.1846 25.0365 17.1798 26.026V31.1538C17.1846 32.1433 17.9856 32.9433 18.974 32.949H21.0259C22.0144 32.9433 22.8154 32.1433 22.8202 31.1538V26.026C22.8154 25.0366 22.0144 24.2366 21.0259 24.2308ZM21.2817 31.1538C21.2817 31.2221 21.2548 31.2875 21.2067 31.3356C21.1586 31.3837 21.0933 31.4106 21.026 31.4106H18.974C18.8327 31.4106 18.7183 31.2962 18.7183 31.1538V26.026C18.7183 25.8846 18.8327 25.7692 18.974 25.7692H21.026C21.0933 25.7692 21.1586 25.7961 21.2067 25.8442C21.2548 25.8923 21.2817 25.9577 21.2817 26.026V31.1538ZM13.8462 20.1289H11.7952C10.8058 20.1337 10.0058 20.9346 10 21.9231V31.1539C10.0058 32.1433 10.8058 32.9433 11.7952 32.9491H13.8462C14.8356 32.9433 15.6356 32.1433 15.6414 31.1539V21.9231C15.6356 20.9346 14.8356 20.1337 13.8462 20.1289ZM14.1029 31.1538C14.1029 31.2221 14.076 31.2875 14.0279 31.3356C13.9798 31.3837 13.9144 31.4106 13.8462 31.4106H11.7952C11.6529 31.4106 11.5385 31.2962 11.5385 31.1538V21.9231C11.5385 21.7817 11.6529 21.6673 11.7952 21.6673H13.8462C13.9144 21.6673 13.9798 21.6942 14.0279 21.7423C14.076 21.7904 14.1029 21.8558 14.1029 21.9231V31.1538ZM30 13.7183V16.7952C30 17.2202 29.6558 17.5644 29.2308 17.5644C28.8058 17.5644 28.4615 17.2202 28.4615 16.7952V15.5135L21.0769 21.0519C20.4384 21.5298 19.5616 21.5298 18.9231 21.0519L11.3337 15.3596C10.9933 15.1048 10.925 14.6221 11.1798 14.2827C11.4346 13.9423 11.9164 13.874 12.2567 14.1289L19.8462 19.8721C19.9365 19.9442 20.0635 19.9442 20.1538 19.8721L27.2615 14.5385H26.1538C25.7288 14.5385 25.3846 14.1942 25.3846 13.7692C25.3846 13.3452 25.7288 13 26.1538 13H29.2308C29.6346 13.0048 29.9683 13.3164 30 13.7183Z" fill="#FF6B35"/>
<defs>
<filter id="filter0_bi_39_948" x="-54" y="-53.0764" width="148" height="152.395" filterUnits="userSpaceOnUse" color-interpolation-filters="sRGB">
<feFlood flood-opacity="0" result="BackgroundImageFix"/>
<feGaussianBlur in="BackgroundImageFix" stdDeviation="27"/>
<feComposite in2="SourceAlpha" operator="in" result="effect1_backgroundBlur_39_948"/>
<feBlend mode="normal" in="SourceGraphic" in2="effect1_backgroundBlur_39_948" result="shape"/>
<feColorMatrix in="SourceAlpha" type="matrix" values="0 0 0 0 0 0 0 0 0 0 0 0 0 0 0 0 0 0 127 0" result="hardAlpha"/>
<feOffset/>
<feGaussianBlur stdDeviation="7"/>
<feComposite in2="hardAlpha" operator="arithmetic" k2="-1" k3="1"/>
<feColorMatrix type="matrix" values="0 0 0 0 0.968627 0 0 0 0 0.976471 0 0 0 0 0.984314 0 0 0 0.1 0"/>
<feBlend mode="normal" in2="shape" result="effect2_innerShadow_39_948"/>
</filter>
<radialGradient id="paint0_radial_39_948" cx="0" cy="0" r="1" gradientUnits="userSpaceOnUse" gradientTransform="translate(20 23.1461) rotate(90) scale(112.135 96.8932)">
<stop stop-color="#001B2E"/>
<stop offset="1" stop-color="#005794"/>
</radialGradient>
</defs>
</svg>
